<svg xmlns="http://www.w3.org/2000/svg" width="39.6" height="35" viewBox="0 0 39.6 35">
  <g id="email-svgrepo-com" transform="translate(0 -15.409)">
    <path id="Path_2" data-name="Path 2" d="M38.92,26.062l-2.551-1.448V22.482a1.343,1.343,0,0,0-1.343-1.343H30.248l-9.785-5.555a1.344,1.344,0,0,0-1.327,0L9.352,21.139H4.575a1.343,1.343,0,0,0-1.343,1.343v2.131L.68,26.062A1.356,1.356,0,0,0,0,27.238V49.066a1.343,1.343,0,0,0,1.343,1.343H38.257A1.343,1.343,0,0,0,39.6,49.066V27.23A1.343,1.343,0,0,0,38.92,26.062ZM2.687,32.633h.55l10.791,6.414-11.341,7.5Zm31-8.807v6.712l-.649.453L23.5,37.65h-6.56L5.913,31.1c0-.035.005-.071.005-.107h0V23.826ZM16.947,40.337H23.47l10.512,7.385H5.784Zm9.3-1.331,9.126-6.373h1.538V46.5ZM36.913,28.012v1.934h-.544V27.7ZM19.8,18.3l5.006,2.842H14.795ZM3.231,27.7v2.243H2.687V28.012Z" transform="translate(0 0)" fill="rgba(23,26,26,0.85)"/>
  </g>
</svg>
