<svg id="instagram-seeklogo.com" xmlns="http://www.w3.org/2000/svg" width="35" height="35" viewBox="0 0 35 35">
  <path id="Path_1" data-name="Path 1" d="M17.5,3.153c4.673,0,5.226.018,7.071.1a9.687,9.687,0,0,1,3.25.6,5.423,5.423,0,0,1,2.012,1.309,5.423,5.423,0,0,1,1.309,2.012,9.685,9.685,0,0,1,.6,3.249c.084,1.845.1,2.4.1,7.072s-.018,5.226-.1,7.072a9.685,9.685,0,0,1-.6,3.25,5.795,5.795,0,0,1-3.321,3.321,9.682,9.682,0,0,1-3.25.6c-1.845.084-2.4.1-7.071.1s-5.226-.018-7.072-.1a9.68,9.68,0,0,1-3.249-.6,5.42,5.42,0,0,1-2.012-1.309,5.422,5.422,0,0,1-1.309-2.012,9.684,9.684,0,0,1-.6-3.25c-.084-1.845-.1-2.4-.1-7.072s.018-5.226.1-7.071a9.684,9.684,0,0,1,.6-3.25A5.422,5.422,0,0,1,5.167,5.167,5.423,5.423,0,0,1,7.179,3.858a9.685,9.685,0,0,1,3.249-.6c1.845-.084,2.4-.1,7.072-.1M17.5,0c-4.753,0-5.349.02-7.215.105A12.845,12.845,0,0,0,6.037.919a8.578,8.578,0,0,0-3.1,2.018,8.578,8.578,0,0,0-2.018,3.1,12.845,12.845,0,0,0-.813,4.248C.02,12.151,0,12.747,0,17.5s.02,5.349.105,7.215a12.845,12.845,0,0,0,.813,4.248,8.579,8.579,0,0,0,2.018,3.1,8.577,8.577,0,0,0,3.1,2.018,12.843,12.843,0,0,0,4.248.813c1.867.085,2.462.105,7.215.105s5.349-.02,7.215-.105a12.843,12.843,0,0,0,4.248-.813,8.948,8.948,0,0,0,5.118-5.118,12.846,12.846,0,0,0,.813-4.248C34.98,22.849,35,22.253,35,17.5s-.02-5.349-.105-7.215a12.847,12.847,0,0,0-.813-4.248,8.578,8.578,0,0,0-2.019-3.1,8.578,8.578,0,0,0-3.1-2.018A12.845,12.845,0,0,0,24.715.105C22.849.02,22.253,0,17.5,0Zm0,8.514A8.987,8.987,0,1,0,26.487,17.5,8.987,8.987,0,0,0,17.5,8.514Zm0,14.82A5.833,5.833,0,1,1,23.333,17.5,5.833,5.833,0,0,1,17.5,23.333ZM28.941,8.158a2.1,2.1,0,1,1-2.1-2.1A2.1,2.1,0,0,1,28.941,8.158Z" transform="translate(0 0)" fill="rgba(23,26,26,0.85)"/>
</svg>
