<svg xmlns="http://www.w3.org/2000/svg" width="42.749" height="35" viewBox="0 0 42.749 35">
  <g id="XMLID_826_" transform="translate(0.002 -28.097)">
    <path id="XMLID_827_" d="M41.778,32.136a16.2,16.2,0,0,1-2.068.753,9.139,9.139,0,0,0,1.861-3.272.69.69,0,0,0-1.008-.8,16.271,16.271,0,0,1-4.81,1.9,9.181,9.181,0,0,0-15.6,6.559,9.361,9.361,0,0,0,.075,1.186A23.5,23.5,0,0,1,4.1,29.9a.69.69,0,0,0-1.13.089,9.19,9.19,0,0,0,.941,10.563,7.773,7.773,0,0,1-1.228-.548.69.69,0,0,0-1.024.587c0,.041,0,.081,0,.123a9.209,9.209,0,0,0,4.492,7.892c-.233-.023-.467-.057-.7-.1a.69.69,0,0,0-.786.888,9.174,9.174,0,0,0,6.723,6.151,16.235,16.235,0,0,1-8.678,2.477,16.6,16.6,0,0,1-1.944-.114.689.689,0,0,0-.453,1.265A24.749,24.749,0,0,0,13.7,63.1a23.809,23.809,0,0,0,18.446-8.1,25.68,25.68,0,0,0,6.393-16.737c0-.252,0-.506-.012-.76a17.84,17.84,0,0,0,4.106-4.349.69.69,0,0,0-.853-1.014Z" transform="translate(0 0)" fill="rgba(23,26,26,0.85)"/>
  </g>
</svg>
