<svg xmlns="http://www.w3.org/2000/svg" width="17.68" height="35" viewBox="0 0 17.68 35">
  <g id="XMLID_834_" transform="translate(-76.703)">
    <path id="XMLID_835_" d="M77.268,18.641H81.1V34.435a.564.564,0,0,0,.565.565h6.505a.564.564,0,0,0,.565-.565V18.715h4.41a.565.565,0,0,0,.561-.5l.67-5.815a.564.564,0,0,0-.561-.629h-5.08V8.127c0-1.1.592-1.656,1.759-1.656h3.322a.565.565,0,0,0,.565-.565V.569A.564.564,0,0,0,93.819,0H89.241c-.032,0-.1,0-.21,0A8.772,8.772,0,0,0,83.3,2.162a6.015,6.015,0,0,0-2,5.347v4.262H77.268a.564.564,0,0,0-.565.565v5.74A.565.565,0,0,0,77.268,18.641Z" fill="rgba(23,26,26,0.85)"/>
  </g>
</svg>
